<svg xmlns="http://www.w3.org/2000/svg" viewBox="0 0 638.11 672.83"><defs><style>.cls-1{fill:#ececec;}.cls-2{fill:#292a29;}</style></defs><title>HTTCup</title><g id="Layer_2" data-name="Layer 2"><path class="cls-1" d="M414,15.87c95.42-5,177.52,27.3,220,117.28,37.74,79.87,22.64,173.42,2.82,256.39-20,83.54-53.42,174.16-101.2,246.24-57.2,86.31-127.71,49.12-207.29,8.38-134.17-68.68-323-199.79-308.4-373.37C35.39,87.07,260.39,22.35,414,15.87Z" transform="translate(-19.11 -15.38)"/></g><g id="Layer_1" data-name="Layer 1"><path class="cls-2" d="M343.47,521.3a153.55,153.55,0,0,1-92.06-27.68c-21.4-15.17-41.63-44-38.71-71.53,1.64-15.35,14.2-16,20.85-3.43,7.79,14.77,11.14,28.67,23.65,40.78,23.46,22.69,55.07,31.75,87.07,32.26,61.48,1,137.79-27.88,160.76-89.88,5.48-14.79,6.51-30,6.65-45.59.06-7.4-3-44.56,13.37-34.55,11,6.74,8.76,30.63,8.7,41.43a132.77,132.77,0,0,1-10.06,48.77c-13,32.35-38.38,60.63-67.86,79C420.33,513,384.23,517.93,343.47,521.3Z" transform="translate(-19.11 -15.38)"/><path class="cls-2" d="M218.08,395.23c-13.05-1.63-32.81-.31-41.62-12.19-7.84-10.59-.56-24.7,7.92-32.54,4.18-3.86,27.54-18.19,30.71-5.9,2.14,8.29-24.89,11.39-14.11,24.67,6.62,8.15,31.52,5.77,40.9,5.61,17.3-.3,34.49-2.65,51.47-5.85,33.18-6.25,65.3-16.18,97-27.7,29.6-10.76,61.3-21,87.1-39.52,5.47-3.94,29-18.14,23.86-27.11-2.25-4-9.38-1.27-11.64-6.18-3.8-8.27,8.47-11.48,13.81-12.72,10.64-2.49,29.31-2.65,37,7.05,9.48,11.92-7.19,22.92-15.39,29.38-25.28,19.9-56.21,33.57-85.77,45.82-35.2,14.58-71.95,28-108.75,38C294.79,385.7,255.22,394.1,218.08,395.23Z" transform="translate(-19.11 -15.38)"/><path class="cls-2" d="M316.93,275.76c.32-23.7,8.38-42.62,14.64-64.82,7.47-26.48-7.4-41.55-28.32-54.87-6.89-4.39-14-12-8.21-20.56s21.2-5.21,29.08-2.1c20.39,8,30.34,29,33.48,49.65,3.48,22.82-13,42.94-15.86,65.15-2.84,22.42.09,40.66,18.33,55.07,5.43,4.28,17.85,10.05,13,18.65-4.15,7.41-18,8.51-25.11,6.61C329.73,323.62,316.21,293.1,316.93,275.76Z" transform="translate(-19.11 -15.38)"/><path class="cls-2" d="M229.4,290.42c-1.4-25.16,13.71-47.78,14.31-72.66.69-29-17.24-28.67-37.26-41-12-7.42-5.44-16.68,6.29-20.07,9.92-2.87,22.56.05,31.42,5,17.24,9.55,22.11,29.48,21.2,47.91C264.1,235,250.83,258.33,251.66,284c.41,12.5,3.72,26.72,11.31,36.94,6.82,9.17,20.81,8.91,26.73,17.29,5.4,7.66-1.16,14.1-8.36,15.91-9.69,2.43-21.7-1.45-29.57-7.11C234,334.17,229.16,311,229.4,290.42Z" transform="translate(-19.11 -15.38)"/><path class="cls-2" d="M453,183c0,21.34-9.47,39.25-13.66,59.63-1.94,9.47-3.75,22-.15,31.42,2.53,6.59,10.42,10.25,11.83,17.18,1.75,8.65-6.17,12.42-14,12.71-8.5.32-14.66-4.31-19.32-11.14-14-20.49-5-44.32,2.56-65.17,7.15-19.72,12.71-38.73,5.52-59.35-3.17-9.06-7.3-16.32-15-22-6.43-4.74-20.23-7.93-21.8-16.38-4.44-23.87,34.16-8,41.41-1C444.44,142.35,453.64,163.46,453,183Z" transform="translate(-19.11 -15.38)"/><path class="cls-2" d="M614.62,312.75C616,336,598.16,372.12,574.16,378.7c-19.23,5.27-13.21-8.78-4.76-17.44,9.67-9.93,19.58-20.92,20.44-35.67.95-16.14-10.9-12.89-21.47-11-15.14,2.74-11.91-10.08-3.63-17.24C584.86,280,612.74,283.71,614.62,312.75Z" transform="translate(-19.11 -15.38)"/></g></svg>